<svg width="65" height="64" viewBox="0 0 65 64" fill="none" xmlns="http://www.w3.org/2000/svg">
<path fill-rule="evenodd" clip-rule="evenodd" d="M32.3417 0C14.4576 0 0 14.5642 0 32.582C0 46.9847 9.26348 59.1762 22.1144 63.4912C23.7211 63.8156 24.3096 62.7901 24.3096 61.9275C24.3096 61.1722 24.2566 58.5831 24.2566 55.8854C15.2599 57.8277 13.3865 52.0014 13.3865 52.0014C11.9406 48.2253 9.79838 47.2548 9.79838 47.2548C6.85377 45.2588 10.0129 45.2588 10.0129 45.2588C13.2792 45.4747 14.9932 48.6033 14.9932 48.6033C17.8841 53.5657 22.5427 52.1636 24.4168 51.3003C24.6843 49.1965 25.5416 47.74 26.4519 46.9311C19.2763 46.1757 11.7268 43.3708 11.7268 30.8555C11.7268 27.2953 13.0111 24.3824 15.0461 22.117C14.725 21.3081 13.6003 17.9629 15.3679 13.4858C15.3679 13.4858 18.0986 12.6225 24.256 16.8302C26.8921 16.117 29.6108 15.7542 32.3417 15.7512C35.0725 15.7512 37.8563 16.1292 40.4268 16.8302C46.5848 12.6225 49.3156 13.4858 49.3156 13.4858C51.0832 17.9629 49.9578 21.3081 49.6367 22.117C51.7253 24.3824 52.9567 27.2953 52.9567 30.8555C52.9567 43.3708 45.4071 46.1214 38.178 46.9311C39.3564 47.9559 40.3732 49.8975 40.3732 52.9726C40.3732 57.3418 40.3203 60.8485 40.3203 61.9269C40.3203 62.7901 40.9094 63.8156 42.5155 63.4919C55.3664 59.1756 64.6299 46.9847 64.6299 32.582C64.6828 14.5642 50.1723 0 32.3417 0Z" fill="white"/>
</svg>
