<svg width="40" height="40" viewBox="0 0 40 40" fill="none" xmlns="http://www.w3.org/2000/svg">
<path d="M34.8409 26.7183C34.8046 26.6421 34.7707 26.5789 34.7392 26.5282C34.2188 25.6154 33.2241 24.495 31.7559 23.1667L31.7249 23.1363L31.7093 23.1213L31.6936 23.106H31.6779C31.0115 22.4875 30.5895 22.0716 30.4128 21.8587C30.0895 21.4531 30.0171 21.0425 30.1938 20.6265C30.3186 20.3122 30.7876 19.6485 31.5996 18.6343C32.0267 18.0969 32.3649 17.6661 32.6147 17.3416C34.4164 15.0094 35.1974 13.5191 34.9578 12.87L34.8648 12.7184C34.8022 12.6271 34.6408 12.5435 34.3808 12.4674C34.1202 12.3913 33.787 12.3788 33.3808 12.4294L28.8825 12.4597C28.8096 12.4346 28.7055 12.4369 28.57 12.4674C28.4346 12.4978 28.3668 12.5131 28.3668 12.5131L28.2885 12.5512L28.2264 12.597C28.1743 12.6272 28.117 12.6805 28.0545 12.7565C27.9923 12.8323 27.9403 12.9213 27.8987 13.0227C27.4089 14.2496 26.8521 15.3903 26.2272 16.4447C25.8419 17.0735 25.488 17.6184 25.1648 18.0798C24.8421 18.541 24.5714 18.8808 24.3529 19.0987C24.134 19.3167 23.9365 19.4914 23.7592 19.6233C23.5821 19.7553 23.4469 19.8111 23.3533 19.7907C23.2595 19.7703 23.1711 19.7501 23.0875 19.7298C22.9418 19.6385 22.8246 19.5143 22.7362 19.3572C22.6475 19.2 22.5877 19.0022 22.5565 18.7639C22.5254 18.5255 22.507 18.3204 22.5018 18.148C22.4969 17.9757 22.4992 17.7321 22.5097 17.4178C22.5206 17.1034 22.5254 16.8906 22.5254 16.7791C22.5254 16.3937 22.5331 15.9755 22.5486 15.5242C22.5644 15.073 22.5771 14.7155 22.5878 14.4522C22.5984 14.1885 22.6033 13.9096 22.6033 13.6155C22.6033 13.3215 22.585 13.0909 22.5486 12.9235C22.5127 12.7563 22.4576 12.594 22.385 12.4367C22.312 12.2796 22.2051 12.158 22.0648 12.0717C21.9243 11.9855 21.7495 11.9171 21.5416 11.8663C20.9896 11.7447 20.2868 11.6789 19.4327 11.6687C17.496 11.6484 16.2515 11.7702 15.6996 12.0338C15.481 12.1452 15.2831 12.2974 15.1062 12.49C14.9187 12.7131 14.8925 12.8349 15.0279 12.8549C15.6528 12.9461 16.0951 13.1641 16.3555 13.5088L16.4493 13.6915C16.5223 13.8233 16.5952 14.0566 16.6681 14.3912C16.7409 14.7257 16.7879 15.0958 16.8086 15.5012C16.8606 16.2415 16.8606 16.8752 16.8086 17.4024C16.7565 17.9298 16.7072 18.3403 16.6602 18.6344C16.6132 18.9284 16.543 19.1667 16.4493 19.3492C16.3555 19.5317 16.2931 19.6432 16.2618 19.6837C16.2305 19.7242 16.2045 19.7497 16.1838 19.7597C16.0485 19.8103 15.9077 19.836 15.762 19.836C15.6161 19.836 15.4392 19.7649 15.231 19.6229C15.0228 19.4809 14.8067 19.2858 14.5828 19.0373C14.3589 18.7888 14.1064 18.4415 13.8251 17.9955C13.5441 17.5494 13.2525 17.0221 12.9505 16.4138L12.7006 15.9726C12.5444 15.6887 12.3311 15.2755 12.0603 14.7331C11.7894 14.1905 11.5499 13.6657 11.3418 13.1587C11.2586 12.9458 11.1336 12.7837 10.967 12.6721L10.8888 12.6264C10.8368 12.5859 10.7534 12.5429 10.6389 12.4971C10.5243 12.4513 10.4047 12.4185 10.2797 12.3983L5.99986 12.4286C5.56251 12.4286 5.26577 12.5251 5.10953 12.7177L5.04699 12.8089C5.01576 12.8597 5 12.9407 5 13.0523C5 13.1639 5.03124 13.3008 5.09377 13.4629C5.71854 14.8927 6.39797 16.2716 7.13205 17.5999C7.86613 18.9282 8.50404 19.9981 9.04538 20.8088C9.58683 21.6201 10.1387 22.3858 10.7011 23.1055C11.2634 23.8254 11.6357 24.2868 11.8178 24.4895C12.0001 24.6926 12.1434 24.8444 12.2475 24.9458L12.638 25.3107C12.888 25.5541 13.2549 25.8456 13.7392 26.1852C14.2235 26.5251 14.7597 26.8596 15.348 27.1894C15.9365 27.5187 16.6211 27.7874 17.4021 27.9952C18.1831 28.2032 18.9432 28.2867 19.6826 28.2464H21.4789C21.8432 28.2158 22.1192 28.1042 22.3068 27.9117L22.369 27.8355C22.4108 27.775 22.4499 27.6809 22.486 27.5544C22.5225 27.4277 22.5407 27.2881 22.5407 27.1362C22.53 26.7003 22.5641 26.3074 22.642 25.9576C22.7199 25.6079 22.8086 25.3443 22.9078 25.1667C23.007 24.9894 23.119 24.8397 23.2435 24.7183C23.3684 24.5967 23.4573 24.523 23.5095 24.4977C23.5614 24.4721 23.6028 24.4548 23.634 24.4444C23.884 24.3634 24.1781 24.4419 24.5168 24.6804C24.8553 24.9187 25.1728 25.2129 25.4697 25.5626C25.7665 25.9125 26.1231 26.3052 26.5396 26.7411C26.9563 27.1772 27.3206 27.5014 27.6329 27.7146L27.9452 27.8971C28.1537 28.0189 28.4245 28.1305 28.7578 28.2318C29.0905 28.3332 29.382 28.3585 29.6322 28.3078L33.6307 28.2471C34.0262 28.2471 34.334 28.1834 34.5523 28.0568C34.771 27.9301 34.9009 27.7905 34.9428 27.6386C34.9846 27.4866 34.9869 27.3141 34.9508 27.1212C34.9137 26.9289 34.8772 26.7944 34.8409 26.7183Z" fill="white"/>
</svg>
